<svg xmlns="http://www.w3.org/2000/svg" xmlns:xlink="http://www.w3.org/1999/xlink" width="500" zoomAndPan="magnify" viewBox="0 0 375 374.999991" height="500" preserveAspectRatio="xMidYMid meet" version="1.0"><defs><g/><clipPath id="8c1c8644e7"><path d="M 135 165 L 244 165 L 244 220.984375 L 135 220.984375 Z M 135 165 " clip-rule="nonzero"/></clipPath><clipPath id="caddceb446"><path d="M 165 115 L 317.695312 115 L 317.695312 165 L 165 165 Z M 165 115 " clip-rule="nonzero"/></clipPath><clipPath id="c153c430a3"><path d="M 57.445312 115 L 223 115 L 223 182 L 57.445312 182 Z M 57.445312 115 " clip-rule="nonzero"/></clipPath></defs><path fill="#404041" d="M 140.496094 127.628906 L 140.496094 116.285156 C 144.324219 114.652344 148.226562 113.21875 152.203125 111.980469 C 156.175781 110.742188 160.199219 109.707031 164.277344 108.875 C 168.355469 108.042969 172.46875 107.414062 176.609375 106.996094 C 180.75 106.578125 184.902344 106.371094 189.0625 106.371094 C 193.226562 106.371094 197.375 106.578125 201.519531 106.996094 C 205.660156 107.414062 209.769531 108.042969 213.847656 108.875 C 217.925781 109.707031 221.949219 110.742188 225.925781 111.980469 C 229.898438 113.21875 233.800781 114.652344 237.628906 116.285156 L 237.628906 126.121094 L 270.601562 120.0625 L 249.5 120.164062 L 249.5 108.589844 L 244.847656 106.484375 C 240.472656 104.511719 236.007812 102.777344 231.449219 101.277344 C 226.890625 99.78125 222.269531 98.527344 217.578125 97.519531 C 212.890625 96.507812 208.160156 95.753906 203.386719 95.246094 C 198.617188 94.738281 193.835938 94.484375 189.039062 94.484375 C 184.242188 94.484375 179.457031 94.738281 174.6875 95.246094 C 169.917969 95.753906 165.1875 96.507812 160.496094 97.519531 C 155.804688 98.527344 151.183594 99.78125 146.625 101.277344 C 142.066406 102.777344 137.601562 104.511719 133.230469 106.484375 L 128.566406 108.589844 L 128.566406 120.171875 L 104.363281 120.0625 Z M 140.496094 127.628906 " fill-opacity="1" fill-rule="nonzero"/><g clip-path="url(#8c1c8644e7)"><path fill="#404041" d="M 230.070312 165.691406 C 228.96875 168.09375 227.757812 170.449219 226.433594 172.753906 C 222.769531 179.105469 218.347656 184.875 213.167969 190.0625 C 207.988281 195.25 202.222656 199.675781 195.878906 203.347656 L 189.0625 207.277344 L 182.246094 203.347656 C 175.894531 199.679688 170.128906 195.25 164.941406 190.0625 C 159.753906 184.878906 155.328125 179.109375 151.660156 172.753906 L 151.054688 171.691406 C 149.121094 169.84375 147.34375 167.855469 145.726562 165.722656 L 135.136719 165.722656 C 137.09375 170.730469 139.457031 175.542969 142.226562 180.152344 C 144.996094 184.757812 148.132812 189.105469 151.632812 193.183594 C 155.136719 197.261719 158.957031 201.019531 163.09375 204.453125 C 167.230469 207.882812 171.628906 210.945312 176.28125 213.636719 L 189.0625 220.992188 L 201.84375 213.636719 C 206.503906 210.945312 210.902344 207.882812 215.042969 204.449219 C 219.1875 201.011719 223.007812 197.253906 226.515625 193.171875 C 230.019531 189.089844 233.160156 184.742188 235.929688 180.128906 C 238.703125 175.515625 241.066406 170.703125 243.023438 165.691406 Z M 230.070312 165.691406 " fill-opacity="1" fill-rule="nonzero"/></g><g clip-path="url(#caddceb446)"><path fill="#bd3726" d="M 299.214844 135.566406 C 306.628906 135.125 317.320312 115.425781 317.320312 115.425781 L 224.449219 132.472656 C 221.003906 133.105469 217.644531 132.792969 214.378906 131.535156 L 194.550781 123.898438 C 193.660156 123.554688 192.738281 123.328125 191.789062 123.21875 C 190.839844 123.109375 189.890625 123.117188 188.945312 123.25 C 188 123.378906 187.085938 123.628906 186.203125 123.992188 C 185.316406 124.355469 184.492188 124.824219 183.730469 125.398438 L 165.582031 139.035156 C 165.230469 139.296875 165.058594 139.648438 165.0625 140.082031 C 165.058594 140.519531 165.230469 140.867188 165.582031 141.125 C 166.40625 141.738281 167.308594 142.210938 168.285156 142.53125 C 169.261719 142.855469 170.265625 143.019531 171.292969 143.019531 C 172.324219 143.019531 173.324219 142.855469 174.304688 142.53125 C 175.28125 142.210938 176.179688 141.738281 177.007812 141.125 L 184.429688 135.550781 C 184.875 135.21875 185.34375 134.921875 185.835938 134.667969 C 186.328125 134.410156 186.839844 134.195312 187.367188 134.019531 C 187.894531 133.84375 188.429688 133.714844 188.980469 133.625 C 189.527344 133.535156 190.078125 133.492188 190.636719 133.492188 C 191.191406 133.492188 191.742188 133.535156 192.289062 133.625 C 192.839844 133.714844 193.378906 133.84375 193.90625 134.019531 C 194.433594 134.195312 194.941406 134.410156 195.433594 134.667969 C 195.925781 134.921875 196.394531 135.21875 196.84375 135.550781 L 223.203125 155.402344 C 224.035156 156.007812 224.726562 156.746094 225.269531 157.621094 C 225.8125 158.496094 226.171875 159.441406 226.347656 160.457031 L 226.347656 160.515625 C 226.425781 160.90625 226.617188 161.222656 226.925781 161.472656 C 227.234375 161.71875 227.589844 161.835938 227.984375 161.828125 C 227.984375 161.828125 258.964844 163.269531 269.09375 164.386719 C 274.003906 164.929688 284.433594 155.007812 284.433594 155.007812 L 258.425781 150.566406 C 268.550781 151.328125 281.628906 152.214844 288.453125 152.222656 C 294.308594 152.222656 305.203125 138.625 305.203125 138.625 L 243.269531 139.035156 C 243.269531 139.035156 283.859375 136.488281 299.214844 135.566406 Z M 299.214844 135.566406 " fill-opacity="1" fill-rule="nonzero"/></g><g clip-path="url(#c153c430a3)"><path fill="#bd3726" d="M 222.609375 161.28125 C 222.53125 160.714844 222.34375 160.1875 222.046875 159.699219 C 221.75 159.210938 221.371094 158.800781 220.902344 158.46875 L 194.492188 138.609375 C 193.925781 138.183594 193.308594 137.863281 192.640625 137.636719 C 191.972656 137.414062 191.285156 137.304688 190.578125 137.304688 C 189.875 137.304688 189.1875 137.414062 188.519531 137.636719 C 187.847656 137.863281 187.234375 138.183594 186.667969 138.609375 L 179.246094 144.175781 C 178.671875 144.605469 178.066406 144.984375 177.433594 145.316406 C 176.796875 145.644531 176.140625 145.925781 175.460938 146.148438 C 174.78125 146.375 174.085938 146.546875 173.378906 146.660156 C 172.671875 146.773438 171.960938 146.832031 171.242188 146.832031 C 170.527344 146.832031 169.8125 146.773438 169.105469 146.660156 C 168.398438 146.546875 167.707031 146.375 167.027344 146.148438 C 166.34375 145.925781 165.6875 145.644531 165.050781 145.316406 C 164.417969 144.984375 163.8125 144.605469 163.238281 144.175781 C 162.570312 143.675781 162.054688 143.046875 161.691406 142.296875 C 161.332031 141.542969 161.164062 140.75 161.191406 139.914062 C 161.234375 139.109375 161.449219 138.351562 161.835938 137.640625 C 162.21875 136.929688 162.738281 136.339844 163.390625 135.863281 L 176.171875 126.273438 C 176.417969 126.128906 176.582031 125.921875 176.664062 125.648438 C 176.746094 125.371094 176.726562 125.109375 176.597656 124.851562 C 176.472656 124.59375 176.273438 124.414062 176.007812 124.3125 C 175.738281 124.210938 175.472656 124.214844 175.207031 124.324219 L 154.199219 131.664062 C 150.929688 132.808594 147.601562 133.023438 144.210938 132.308594 L 136.363281 130.777344 L 136.363281 130.726562 C 136.050781 130.683594 135.785156 130.640625 135.582031 130.597656 L 57.847656 115.425781 C 57.847656 115.425781 68.542969 135.125 75.953125 135.566406 C 91.292969 136.488281 131.882812 139.113281 131.882812 139.113281 L 69.9375 138.703125 C 69.9375 138.703125 80.855469 152.316406 86.699219 152.296875 C 93.515625 152.296875 106.601562 151.445312 116.726562 150.644531 L 90.710938 155.085938 C 90.710938 155.085938 101.167969 164.980469 106.046875 164.460938 C 112.746094 163.710938 146.019531 161.90625 146.09375 161.90625 C 147.371094 161.90625 147.796875 162.101562 148.191406 162.621094 C 149.257812 164.105469 150.410156 165.519531 151.648438 166.863281 C 152.882812 168.210938 154.195312 169.480469 155.582031 170.667969 C 156.96875 171.859375 158.417969 172.964844 159.933594 173.984375 C 161.453125 175.003906 163.023438 175.929688 164.648438 176.761719 C 166.277344 177.597656 167.945312 178.332031 169.660156 178.964844 C 171.371094 179.601562 173.117188 180.132812 174.890625 180.5625 C 176.667969 180.992188 178.464844 181.316406 180.277344 181.53125 C 182.09375 181.75 183.914062 181.859375 185.738281 181.859375 L 185.867188 181.859375 C 186.152344 181.863281 186.429688 181.824219 186.703125 181.738281 C 186.976562 181.652344 187.226562 181.527344 187.457031 181.359375 C 187.6875 181.191406 187.886719 180.992188 188.050781 180.757812 C 188.214844 180.527344 188.339844 180.273438 188.425781 180 C 188.613281 179.457031 188.628906 178.910156 188.472656 178.359375 C 188.320312 177.804688 188.015625 177.347656 187.570312 176.984375 L 183.761719 174.109375 C 183.558594 173.964844 183.390625 173.785156 183.253906 173.574219 C 183.121094 173.363281 183.027344 173.136719 182.980469 172.890625 C 182.929688 172.644531 182.925781 172.398438 182.972656 172.152344 C 183.015625 171.902344 183.105469 171.671875 183.234375 171.460938 C 183.382812 171.242188 183.566406 171.0625 183.785156 170.921875 C 184.007812 170.78125 184.246094 170.6875 184.503906 170.644531 C 184.761719 170.601562 185.019531 170.609375 185.273438 170.671875 C 185.527344 170.734375 185.761719 170.84375 185.96875 171 L 189.746094 173.839844 L 189.921875 173.976562 L 196.339844 178.808594 C 196.675781 179.058594 197.042969 179.253906 197.445312 179.386719 C 197.84375 179.519531 198.253906 179.585938 198.675781 179.585938 C 199.09375 179.585938 199.503906 179.519531 199.902344 179.386719 C 200.304688 179.253906 200.671875 179.058594 201.007812 178.808594 C 201.75 178.269531 202.234375 177.558594 202.457031 176.667969 C 202.558594 176.296875 202.601562 175.917969 202.589844 175.53125 C 202.578125 175.148438 202.507812 174.773438 202.382812 174.410156 C 202.261719 174.042969 202.085938 173.707031 201.859375 173.394531 C 201.632812 173.082031 201.367188 172.808594 201.058594 172.578125 L 193.324219 166.78125 C 193.140625 166.648438 192.984375 166.488281 192.859375 166.300781 C 192.730469 166.117188 192.640625 165.914062 192.582031 165.695312 C 192.523438 165.476562 192.503906 165.253906 192.523438 165.03125 C 192.542969 164.804688 192.597656 164.589844 192.691406 164.386719 C 192.816406 164.128906 192.988281 163.90625 193.210938 163.726562 C 193.433594 163.546875 193.683594 163.421875 193.960938 163.355469 C 194.242188 163.289062 194.519531 163.28125 194.800781 163.339844 C 195.082031 163.398438 195.335938 163.515625 195.5625 163.6875 L 203.324219 169.5 L 207.636719 172.746094 C 207.964844 173.003906 208.324219 173.203125 208.710938 173.347656 C 209.101562 173.492188 209.503906 173.578125 209.917969 173.597656 C 210.335938 173.617188 210.742188 173.574219 211.144531 173.464844 C 211.546875 173.359375 211.921875 173.191406 212.273438 172.96875 C 212.53125 172.796875 212.765625 172.597656 212.972656 172.371094 C 213.183594 172.144531 213.367188 171.894531 213.515625 171.621094 C 213.667969 171.351562 213.785156 171.066406 213.867188 170.769531 C 213.949219 170.472656 213.996094 170.167969 214.007812 169.855469 C 214.015625 169.546875 213.992188 169.242188 213.929688 168.9375 C 213.867188 168.632812 213.769531 168.34375 213.636719 168.0625 C 213.503906 167.78125 213.339844 167.523438 213.144531 167.28125 C 212.953125 167.039062 212.730469 166.824219 212.484375 166.636719 L 202.746094 159.296875 C 202.5625 159.164062 202.40625 159.003906 202.28125 158.820312 C 202.152344 158.632812 202.058594 158.429688 202 158.214844 C 201.941406 157.996094 201.921875 157.773438 201.941406 157.546875 C 201.960938 157.324219 202.015625 157.105469 202.109375 156.902344 C 202.230469 156.644531 202.40625 156.421875 202.625 156.242188 C 202.847656 156.0625 203.097656 155.9375 203.378906 155.871094 C 203.65625 155.804688 203.933594 155.796875 204.214844 155.855469 C 204.496094 155.914062 204.75 156.03125 204.980469 156.203125 L 214.75 163.558594 L 214.792969 163.558594 L 216.207031 164.625 C 216.621094 164.933594 217.074219 165.15625 217.570312 165.292969 C 218.066406 165.429688 218.566406 165.472656 219.078125 165.421875 C 219.589844 165.367188 220.074219 165.226562 220.53125 164.992188 C 220.988281 164.753906 221.390625 164.445312 221.730469 164.0625 C 222.398438 163.253906 222.691406 162.328125 222.609375 161.28125 Z M 222.609375 161.28125 " fill-opacity="1" fill-rule="nonzero"/></g><g fill="#404041" fill-opacity="1"><g transform="translate(135.669329, 270.292468)"><g><path d="M 27.75 -29.65625 L 24.4375 -29.65625 C 24.125 -29.65625 23.4375 -29.5625 23.4375 -28.4375 L 23.4375 -10.6875 C 23.4375 -9.609375 23.359375 -8.671875 23.25 -7.984375 C 23.140625 -7.3125 22.9375 -6.765625 22.6875 -6.375 C 22.390625 -6.015625 22.0625 -5.765625 21.59375 -5.578125 C 21.125 -5.4375 20.484375 -5.328125 19.734375 -5.328125 L 11.953125 -5.328125 C 11.203125 -5.328125 10.546875 -5.4375 10.078125 -5.578125 C 9.609375 -5.765625 9.28125 -6.015625 9 -6.375 C 8.75 -6.765625 8.53125 -7.3125 8.390625 -7.984375 C 8.28125 -8.671875 8.203125 -9.609375 8.203125 -10.6875 L 8.203125 -28.4375 C 8.203125 -29.5625 7.53125 -29.65625 7.203125 -29.65625 L 3.921875 -29.65625 C 3.59375 -29.65625 2.875 -29.5625 2.875 -28.4375 L 2.875 -11.265625 C 2.875 -9.25 3.03125 -7.53125 3.34375 -6.125 C 3.671875 -4.6875 4.21875 -3.484375 4.9375 -2.59375 C 5.609375 -1.65625 6.59375 -1.015625 7.703125 -0.578125 C 8.8125 -0.1875 10.1875 0 11.765625 0 L 19.875 0 C 21.453125 0 22.828125 -0.1875 23.9375 -0.578125 C 25.09375 -1.015625 26.03125 -1.65625 26.75 -2.59375 C 27.46875 -3.484375 27.96875 -4.6875 28.296875 -6.125 C 28.625 -7.53125 28.765625 -9.25 28.765625 -11.265625 L 28.765625 -28.4375 C 28.765625 -29.5625 28.078125 -29.65625 27.75 -29.65625 Z M 27.75 -29.65625 "/></g></g></g><g fill="#404041" fill-opacity="1"><g transform="translate(171.874279, 270.292468)"><g><path d="M 20.265625 -17.71875 L 9.46875 -17.71875 C 8.921875 -17.71875 8.25 -17.921875 8.25 -19.6875 L 8.25 -22.359375 C 8.25 -23 8.359375 -23.515625 8.53125 -23.875 C 8.671875 -24.078125 8.890625 -24.34375 9.5 -24.34375 L 24.15625 -24.34375 C 24.4375 -24.34375 25.15625 -24.4375 25.15625 -25.5625 L 25.15625 -28.4375 C 25.15625 -29.5625 24.4375 -29.65625 24.15625 -29.65625 L 8.640625 -29.65625 C 6.65625 -29.65625 5.21875 -29.015625 4.28125 -27.6875 C 3.34375 -26.390625 2.875 -24.65625 2.875 -22.578125 L 2.875 -19.84375 C 2.875 -17.359375 3.390625 -15.34375 4.28125 -14.078125 C 5.40625 -12.59375 7.0625 -12.390625 8.5625 -12.390625 L 19.375 -12.390625 C 19.90625 -12.390625 20.625 -12.171875 20.625 -10.40625 L 20.625 -7.3125 C 20.625 -6.65625 20.515625 -6.15625 20.296875 -5.796875 C 20.15625 -5.578125 19.9375 -5.328125 19.328125 -5.328125 L 3.953125 -5.328125 C 3.640625 -5.328125 2.921875 -5.21875 2.921875 -4.109375 L 2.921875 -1.21875 C 2.921875 -0.109375 3.640625 0 3.953125 0 L 20.203125 0 C 22.171875 0 23.65625 -0.6875 24.59375 -2.015625 C 25.484375 -3.3125 25.953125 -5 25.953125 -7.09375 L 25.953125 -10.265625 C 25.953125 -12.59375 25.484375 -14.4375 24.546875 -15.734375 C 23.578125 -17.03125 22.140625 -17.71875 20.265625 -17.71875 Z M 20.265625 -17.71875 "/></g></g></g><g fill="#404041" fill-opacity="1"><g transform="translate(205.272142, 270.292468)"><g><path d="M 28.375 -29.65625 L 25.15625 -29.65625 C 24.84375 -29.65625 24.15625 -29.5625 24.15625 -28.40625 L 24.15625 -6.765625 C 24.15625 -6.734375 24.15625 -6.734375 24.15625 -6.703125 L 23.96875 -6.703125 C 23.9375 -6.703125 23.90625 -6.703125 23.875 -6.796875 L 12.484375 -27.03125 C 12.203125 -27.578125 11.953125 -28.015625 11.703125 -28.328125 C 11.453125 -28.6875 11.203125 -28.984375 10.9375 -29.15625 C 10.65625 -29.375 10.328125 -29.515625 9.9375 -29.59375 C 9.578125 -29.625 9.140625 -29.65625 8.671875 -29.65625 L 5.96875 -29.65625 C 4.9375 -29.65625 4.140625 -29.296875 3.640625 -28.65625 C 3.125 -27.96875 2.875 -26.78125 2.875 -25.015625 L 2.875 -1.21875 C 2.875 -0.109375 3.59375 0.03125 3.921875 0.03125 L 7.125 0.03125 C 7.453125 0.03125 8.140625 -0.109375 8.140625 -1.21875 L 8.140625 -22.859375 C 8.140625 -22.890625 8.140625 -22.9375 8.140625 -22.9375 L 8.3125 -22.9375 C 8.3125 -22.9375 8.359375 -22.9375 8.421875 -22.828125 L 19.84375 -2.59375 C 20.125 -2.015625 20.40625 -1.578125 20.65625 -1.265625 C 20.921875 -0.90625 21.171875 -0.640625 21.453125 -0.46875 C 21.75 -0.25 22.0625 -0.140625 22.421875 -0.078125 C 22.75 0 23.140625 0.03125 23.65625 0.03125 L 26.28125 0.03125 C 27.328125 0.03125 28.109375 -0.328125 28.625 -1.015625 C 29.125 -1.65625 29.375 -2.84375 29.375 -4.609375 L 29.375 -28.40625 C 29.375 -29.5625 28.65625 -29.65625 28.375 -29.65625 Z M 28.375 -29.65625 "/></g></g></g><g fill="#737373" fill-opacity="1"><g transform="translate(126.657802, 290.432734)"><g><path d="M 7.328125 -8.203125 L 7.328125 -2.890625 C 7.328125 -1.960938 7.039062 -1.226562 6.46875 -0.6875 C 5.90625 -0.15625 5.132812 0.109375 4.15625 0.109375 C 3.164062 0.109375 2.398438 -0.15625 1.859375 -0.6875 C 1.316406 -1.226562 1.046875 -1.972656 1.046875 -2.921875 L 1.046875 -8.203125 L 2 -8.203125 L 2 -2.859375 C 2 -2.171875 2.1875 -1.640625 2.5625 -1.265625 C 2.9375 -0.898438 3.488281 -0.71875 4.21875 -0.71875 C 4.90625 -0.71875 5.4375 -0.898438 5.8125 -1.265625 C 6.1875 -1.640625 6.375 -2.171875 6.375 -2.859375 L 6.375 -8.203125 Z M 7.328125 -8.203125 "/></g></g></g><g fill="#737373" fill-opacity="1"><g transform="translate(135.027277, 290.432734)"><g><path d="M 5.203125 0 L 5.203125 -3.984375 C 5.203125 -4.484375 5.085938 -4.851562 4.859375 -5.09375 C 4.628906 -5.34375 4.269531 -5.46875 3.78125 -5.46875 C 3.132812 -5.46875 2.660156 -5.296875 2.359375 -4.953125 C 2.066406 -4.609375 1.921875 -4.035156 1.921875 -3.234375 L 1.921875 0 L 0.984375 0 L 0.984375 -6.15625 L 1.75 -6.15625 L 1.890625 -5.3125 L 1.9375 -5.3125 C 2.132812 -5.613281 2.40625 -5.847656 2.75 -6.015625 C 3.09375 -6.179688 3.472656 -6.265625 3.890625 -6.265625 C 4.640625 -6.265625 5.195312 -6.082031 5.5625 -5.71875 C 5.9375 -5.363281 6.125 -4.796875 6.125 -4.015625 L 6.125 0 Z M 5.203125 0 "/></g></g></g><g fill="#737373" fill-opacity="1"><g transform="translate(142.083235, 290.432734)"><g><path d="M 1.921875 0 L 0.984375 0 L 0.984375 -6.15625 L 1.921875 -6.15625 Z M 0.90625 -7.828125 C 0.90625 -8.035156 0.957031 -8.1875 1.0625 -8.28125 C 1.164062 -8.382812 1.296875 -8.4375 1.453125 -8.4375 C 1.609375 -8.4375 1.738281 -8.382812 1.84375 -8.28125 C 1.957031 -8.1875 2.015625 -8.035156 2.015625 -7.828125 C 2.015625 -7.609375 1.957031 -7.445312 1.84375 -7.34375 C 1.738281 -7.25 1.609375 -7.203125 1.453125 -7.203125 C 1.296875 -7.203125 1.164062 -7.25 1.0625 -7.34375 C 0.957031 -7.445312 0.90625 -7.609375 0.90625 -7.828125 Z M 0.90625 -7.828125 "/></g></g></g><g fill="#737373" fill-opacity="1"><g transform="translate(144.990938, 290.432734)"><g><path d="M 2.96875 -0.65625 C 3.132812 -0.65625 3.296875 -0.664062 3.453125 -0.6875 C 3.609375 -0.71875 3.726562 -0.742188 3.8125 -0.765625 L 3.8125 -0.0625 C 3.71875 -0.0078125 3.570312 0.03125 3.375 0.0625 C 3.175781 0.09375 3 0.109375 2.84375 0.109375 C 1.65625 0.109375 1.0625 -0.515625 1.0625 -1.765625 L 1.0625 -5.4375 L 0.171875 -5.4375 L 0.171875 -5.875 L 1.0625 -6.265625 L 1.453125 -7.578125 L 1.984375 -7.578125 L 1.984375 -6.15625 L 3.78125 -6.15625 L 3.78125 -5.4375 L 1.984375 -5.4375 L 1.984375 -1.8125 C 1.984375 -1.4375 2.070312 -1.148438 2.25 -0.953125 C 2.425781 -0.753906 2.664062 -0.65625 2.96875 -0.65625 Z M 2.96875 -0.65625 "/></g></g></g><g fill="#737373" fill-opacity="1"><g transform="translate(149.049379, 290.432734)"><g><path d="M 0.015625 -6.15625 L 1.015625 -6.15625 L 2.359375 -2.640625 C 2.648438 -1.835938 2.832031 -1.257812 2.90625 -0.90625 L 2.953125 -0.90625 C 3.003906 -1.101562 3.109375 -1.429688 3.265625 -1.890625 C 3.421875 -2.347656 3.925781 -3.769531 4.78125 -6.15625 L 5.78125 -6.15625 L 3.140625 0.859375 C 2.878906 1.546875 2.570312 2.035156 2.21875 2.328125 C 1.875 2.617188 1.445312 2.765625 0.9375 2.765625 C 0.644531 2.765625 0.363281 2.734375 0.09375 2.671875 L 0.09375 1.921875 C 0.300781 1.960938 0.53125 1.984375 0.78125 1.984375 C 1.414062 1.984375 1.875 1.625 2.15625 0.90625 L 2.5 0.03125 Z M 0.015625 -6.15625 "/></g></g></g><g fill="#737373" fill-opacity="1"><g transform="translate(154.842332, 290.432734)"><g/></g></g><g fill="#737373" fill-opacity="1"><g transform="translate(157.828622, 290.432734)"><g><path d="M 5.765625 -2.1875 C 5.765625 -1.457031 5.5 -0.890625 4.96875 -0.484375 C 4.445312 -0.0859375 3.738281 0.109375 2.84375 0.109375 C 1.863281 0.109375 1.113281 -0.015625 0.59375 -0.265625 L 0.59375 -1.1875 C 0.925781 -1.039062 1.289062 -0.925781 1.6875 -0.84375 C 2.09375 -0.757812 2.488281 -0.71875 2.875 -0.71875 C 3.507812 -0.71875 3.988281 -0.835938 4.3125 -1.078125 C 4.632812 -1.328125 4.796875 -1.664062 4.796875 -2.09375 C 4.796875 -2.375 4.738281 -2.601562 4.625 -2.78125 C 4.507812 -2.96875 4.316406 -3.140625 4.046875 -3.296875 C 3.785156 -3.453125 3.378906 -3.625 2.828125 -3.8125 C 2.066406 -4.09375 1.519531 -4.414062 1.1875 -4.78125 C 0.863281 -5.15625 0.703125 -5.644531 0.703125 -6.25 C 0.703125 -6.882812 0.9375 -7.390625 1.40625 -7.765625 C 1.882812 -8.140625 2.515625 -8.328125 3.296875 -8.328125 C 4.117188 -8.328125 4.867188 -8.175781 5.546875 -7.875 L 5.25 -7.046875 C 4.570312 -7.328125 3.914062 -7.46875 3.28125 -7.46875 C 2.769531 -7.46875 2.375 -7.359375 2.09375 -7.140625 C 1.8125 -6.929688 1.671875 -6.632812 1.671875 -6.25 C 1.671875 -5.957031 1.722656 -5.71875 1.828125 -5.53125 C 1.929688 -5.351562 2.109375 -5.1875 2.359375 -5.03125 C 2.609375 -4.882812 2.988281 -4.722656 3.5 -4.546875 C 4.363281 -4.234375 4.957031 -3.898438 5.28125 -3.546875 C 5.601562 -3.203125 5.765625 -2.75 5.765625 -2.1875 Z M 5.765625 -2.1875 "/></g></g></g><g fill="#737373" fill-opacity="1"><g transform="translate(164.138001, 290.432734)"><g><path d="M 1.859375 -6.15625 L 1.859375 -2.15625 C 1.859375 -1.65625 1.972656 -1.28125 2.203125 -1.03125 C 2.429688 -0.789062 2.789062 -0.671875 3.28125 -0.671875 C 3.925781 -0.671875 4.394531 -0.84375 4.6875 -1.1875 C 4.988281 -1.539062 5.140625 -2.117188 5.140625 -2.921875 L 5.140625 -6.15625 L 6.0625 -6.15625 L 6.0625 0 L 5.296875 0 L 5.171875 -0.828125 L 5.109375 -0.828125 C 4.921875 -0.523438 4.65625 -0.289062 4.3125 -0.125 C 3.976562 0.03125 3.59375 0.109375 3.15625 0.109375 C 2.40625 0.109375 1.84375 -0.0664062 1.46875 -0.421875 C 1.101562 -0.773438 0.921875 -1.34375 0.921875 -2.125 L 0.921875 -6.15625 Z M 1.859375 -6.15625 "/></g></g></g><g fill="#737373" fill-opacity="1"><g transform="translate(171.193958, 290.432734)"><g><path d="M 3.453125 0.109375 C 2.554688 0.109375 1.863281 -0.160156 1.375 -0.703125 C 0.882812 -1.253906 0.640625 -2.03125 0.640625 -3.03125 C 0.640625 -4.0625 0.890625 -4.859375 1.390625 -5.421875 C 1.890625 -5.984375 2.597656 -6.265625 3.515625 -6.265625 C 3.804688 -6.265625 4.097656 -6.234375 4.390625 -6.171875 C 4.691406 -6.109375 4.925781 -6.035156 5.09375 -5.953125 L 4.8125 -5.15625 C 4.601562 -5.238281 4.375 -5.304688 4.125 -5.359375 C 3.882812 -5.410156 3.671875 -5.4375 3.484375 -5.4375 C 2.234375 -5.4375 1.609375 -4.640625 1.609375 -3.046875 C 1.609375 -2.296875 1.757812 -1.71875 2.0625 -1.3125 C 2.375 -0.90625 2.828125 -0.703125 3.421875 -0.703125 C 3.929688 -0.703125 4.457031 -0.8125 5 -1.03125 L 5 -0.203125 C 4.59375 0.00390625 4.078125 0.109375 3.453125 0.109375 Z M 3.453125 0.109375 "/></g></g></g><g fill="#737373" fill-opacity="1"><g transform="translate(176.666958, 290.432734)"><g><path d="M 3.453125 0.109375 C 2.554688 0.109375 1.863281 -0.160156 1.375 -0.703125 C 0.882812 -1.253906 0.640625 -2.03125 0.640625 -3.03125 C 0.640625 -4.0625 0.890625 -4.859375 1.390625 -5.421875 C 1.890625 -5.984375 2.597656 -6.265625 3.515625 -6.265625 C 3.804688 -6.265625 4.097656 -6.234375 4.390625 -6.171875 C 4.691406 -6.109375 4.925781 -6.035156 5.09375 -5.953125 L 4.8125 -5.15625 C 4.601562 -5.238281 4.375 -5.304688 4.125 -5.359375 C 3.882812 -5.410156 3.671875 -5.4375 3.484375 -5.4375 C 2.234375 -5.4375 1.609375 -4.640625 1.609375 -3.046875 C 1.609375 -2.296875 1.757812 -1.71875 2.0625 -1.3125 C 2.375 -0.90625 2.828125 -0.703125 3.421875 -0.703125 C 3.929688 -0.703125 4.457031 -0.8125 5 -1.03125 L 5 -0.203125 C 4.59375 0.00390625 4.078125 0.109375 3.453125 0.109375 Z M 3.453125 0.109375 "/></g></g></g><g fill="#737373" fill-opacity="1"><g transform="translate(182.139957, 290.432734)"><g><path d="M 3.59375 0.109375 C 2.675781 0.109375 1.953125 -0.164062 1.421875 -0.71875 C 0.898438 -1.269531 0.640625 -2.039062 0.640625 -3.03125 C 0.640625 -4.019531 0.882812 -4.804688 1.375 -5.390625 C 1.863281 -5.972656 2.519531 -6.265625 3.34375 -6.265625 C 4.113281 -6.265625 4.722656 -6.007812 5.171875 -5.5 C 5.617188 -5 5.84375 -4.332031 5.84375 -3.5 L 5.84375 -2.90625 L 1.609375 -2.90625 C 1.628906 -2.1875 1.8125 -1.640625 2.15625 -1.265625 C 2.5 -0.890625 2.988281 -0.703125 3.625 -0.703125 C 4.28125 -0.703125 4.9375 -0.84375 5.59375 -1.125 L 5.59375 -0.28125 C 5.257812 -0.144531 4.945312 -0.046875 4.65625 0.015625 C 4.363281 0.078125 4.007812 0.109375 3.59375 0.109375 Z M 3.328125 -5.484375 C 2.835938 -5.484375 2.445312 -5.320312 2.15625 -5 C 1.863281 -4.675781 1.691406 -4.234375 1.640625 -3.671875 L 4.859375 -3.671875 C 4.859375 -4.253906 4.722656 -4.703125 4.453125 -5.015625 C 4.191406 -5.328125 3.816406 -5.484375 3.328125 -5.484375 Z M 3.328125 -5.484375 "/></g></g></g><g fill="#737373" fill-opacity="1"><g transform="translate(188.589675, 290.432734)"><g><path d="M 4.953125 -1.671875 C 4.953125 -1.097656 4.738281 -0.65625 4.3125 -0.34375 C 3.882812 -0.0390625 3.285156 0.109375 2.515625 0.109375 C 1.703125 0.109375 1.066406 -0.0195312 0.609375 -0.28125 L 0.609375 -1.140625 C 0.910156 -0.992188 1.226562 -0.875 1.5625 -0.78125 C 1.90625 -0.695312 2.234375 -0.65625 2.546875 -0.65625 C 3.035156 -0.65625 3.410156 -0.734375 3.671875 -0.890625 C 3.929688 -1.046875 4.0625 -1.28125 4.0625 -1.59375 C 4.0625 -1.832031 3.957031 -2.035156 3.75 -2.203125 C 3.539062 -2.378906 3.132812 -2.582031 2.53125 -2.8125 C 1.957031 -3.03125 1.550781 -3.21875 1.3125 -3.375 C 1.070312 -3.53125 0.890625 -3.707031 0.765625 -3.90625 C 0.648438 -4.113281 0.59375 -4.359375 0.59375 -4.640625 C 0.59375 -5.140625 0.796875 -5.535156 1.203125 -5.828125 C 1.609375 -6.117188 2.171875 -6.265625 2.890625 -6.265625 C 3.546875 -6.265625 4.191406 -6.128906 4.828125 -5.859375 L 4.5 -5.109375 C 3.882812 -5.359375 3.320312 -5.484375 2.8125 -5.484375 C 2.375 -5.484375 2.039062 -5.414062 1.8125 -5.28125 C 1.59375 -5.144531 1.484375 -4.953125 1.484375 -4.703125 C 1.484375 -4.535156 1.523438 -4.394531 1.609375 -4.28125 C 1.691406 -4.164062 1.828125 -4.054688 2.015625 -3.953125 C 2.203125 -3.847656 2.5625 -3.695312 3.09375 -3.5 C 3.820312 -3.226562 4.3125 -2.957031 4.5625 -2.6875 C 4.820312 -2.425781 4.953125 -2.085938 4.953125 -1.671875 Z M 4.953125 -1.671875 "/></g></g></g><g fill="#737373" fill-opacity="1"><g transform="translate(194.073901, 290.432734)"><g><path d="M 4.953125 -1.671875 C 4.953125 -1.097656 4.738281 -0.65625 4.3125 -0.34375 C 3.882812 -0.0390625 3.285156 0.109375 2.515625 0.109375 C 1.703125 0.109375 1.066406 -0.0195312 0.609375 -0.28125 L 0.609375 -1.140625 C 0.910156 -0.992188 1.226562 -0.875 1.5625 -0.78125 C 1.90625 -0.695312 2.234375 -0.65625 2.546875 -0.65625 C 3.035156 -0.65625 3.410156 -0.734375 3.671875 -0.890625 C 3.929688 -1.046875 4.0625 -1.28125 4.0625 -1.59375 C 4.0625 -1.832031 3.957031 -2.035156 3.75 -2.203125 C 3.539062 -2.378906 3.132812 -2.582031 2.53125 -2.8125 C 1.957031 -3.03125 1.550781 -3.21875 1.3125 -3.375 C 1.070312 -3.53125 0.890625 -3.707031 0.765625 -3.90625 C 0.648438 -4.113281 0.59375 -4.359375 0.59375 -4.640625 C 0.59375 -5.140625 0.796875 -5.535156 1.203125 -5.828125 C 1.609375 -6.117188 2.171875 -6.265625 2.890625 -6.265625 C 3.546875 -6.265625 4.191406 -6.128906 4.828125 -5.859375 L 4.5 -5.109375 C 3.882812 -5.359375 3.320312 -5.484375 2.8125 -5.484375 C 2.375 -5.484375 2.039062 -5.414062 1.8125 -5.28125 C 1.59375 -5.144531 1.484375 -4.953125 1.484375 -4.703125 C 1.484375 -4.535156 1.523438 -4.394531 1.609375 -4.28125 C 1.691406 -4.164062 1.828125 -4.054688 2.015625 -3.953125 C 2.203125 -3.847656 2.5625 -3.695312 3.09375 -3.5 C 3.820312 -3.226562 4.3125 -2.957031 4.5625 -2.6875 C 4.820312 -2.425781 4.953125 -2.085938 4.953125 -1.671875 Z M 4.953125 -1.671875 "/></g></g></g><g fill="#737373" fill-opacity="1"><g transform="translate(199.558127, 290.432734)"><g/></g></g><g fill="#737373" fill-opacity="1"><g transform="translate(202.544416, 290.432734)"><g><path d="M 7.546875 0 L 6.453125 0 L 1.96875 -6.890625 L 1.921875 -6.890625 C 1.984375 -6.078125 2.015625 -5.335938 2.015625 -4.671875 L 2.015625 0 L 1.125 0 L 1.125 -8.203125 L 2.203125 -8.203125 L 6.6875 -1.34375 L 6.734375 -1.34375 C 6.722656 -1.445312 6.703125 -1.769531 6.671875 -2.3125 C 6.648438 -2.863281 6.644531 -3.257812 6.65625 -3.5 L 6.65625 -8.203125 L 7.546875 -8.203125 Z M 7.546875 0 "/></g></g></g><g fill="#737373" fill-opacity="1"><g transform="translate(211.211393, 290.432734)"><g><path d="M 3.59375 0.109375 C 2.675781 0.109375 1.953125 -0.164062 1.421875 -0.71875 C 0.898438 -1.269531 0.640625 -2.039062 0.640625 -3.03125 C 0.640625 -4.019531 0.882812 -4.804688 1.375 -5.390625 C 1.863281 -5.972656 2.519531 -6.265625 3.34375 -6.265625 C 4.113281 -6.265625 4.722656 -6.007812 5.171875 -5.5 C 5.617188 -5 5.84375 -4.332031 5.84375 -3.5 L 5.84375 -2.90625 L 1.609375 -2.90625 C 1.628906 -2.1875 1.8125 -1.640625 2.15625 -1.265625 C 2.5 -0.890625 2.988281 -0.703125 3.625 -0.703125 C 4.28125 -0.703125 4.9375 -0.84375 5.59375 -1.125 L 5.59375 -0.28125 C 5.257812 -0.144531 4.945312 -0.046875 4.65625 0.015625 C 4.363281 0.078125 4.007812 0.109375 3.59375 0.109375 Z M 3.328125 -5.484375 C 2.835938 -5.484375 2.445312 -5.320312 2.15625 -5 C 1.863281 -4.675781 1.691406 -4.234375 1.640625 -3.671875 L 4.859375 -3.671875 C 4.859375 -4.253906 4.722656 -4.703125 4.453125 -5.015625 C 4.191406 -5.328125 3.816406 -5.484375 3.328125 -5.484375 Z M 3.328125 -5.484375 "/></g></g></g><g fill="#737373" fill-opacity="1"><g transform="translate(217.661111, 290.432734)"><g><path d="M 2.96875 -0.65625 C 3.132812 -0.65625 3.296875 -0.664062 3.453125 -0.6875 C 3.609375 -0.71875 3.726562 -0.742188 3.8125 -0.765625 L 3.8125 -0.0625 C 3.71875 -0.0078125 3.570312 0.03125 3.375 0.0625 C 3.175781 0.09375 3 0.109375 2.84375 0.109375 C 1.65625 0.109375 1.0625 -0.515625 1.0625 -1.765625 L 1.0625 -5.4375 L 0.171875 -5.4375 L 0.171875 -5.875 L 1.0625 -6.265625 L 1.453125 -7.578125 L 1.984375 -7.578125 L 1.984375 -6.15625 L 3.78125 -6.15625 L 3.78125 -5.4375 L 1.984375 -5.4375 L 1.984375 -1.8125 C 1.984375 -1.4375 2.070312 -1.148438 2.25 -0.953125 C 2.425781 -0.753906 2.664062 -0.65625 2.96875 -0.65625 Z M 2.96875 -0.65625 "/></g></g></g><g fill="#737373" fill-opacity="1"><g transform="translate(221.719552, 290.432734)"><g><path d="M 6.015625 0 L 4.890625 -3.609375 C 4.816406 -3.828125 4.679688 -4.328125 4.484375 -5.109375 L 4.4375 -5.109375 C 4.289062 -4.460938 4.160156 -3.957031 4.046875 -3.59375 L 2.890625 0 L 1.8125 0 L 0.125 -6.15625 L 1.109375 -6.15625 C 1.503906 -4.601562 1.804688 -3.421875 2.015625 -2.609375 C 2.222656 -1.804688 2.34375 -1.265625 2.375 -0.984375 L 2.421875 -0.984375 C 2.453125 -1.203125 2.515625 -1.476562 2.609375 -1.8125 C 2.703125 -2.15625 2.785156 -2.425781 2.859375 -2.625 L 3.984375 -6.15625 L 4.984375 -6.15625 L 6.09375 -2.625 C 6.300781 -1.976562 6.441406 -1.4375 6.515625 -1 L 6.5625 -1 C 6.582031 -1.132812 6.625 -1.34375 6.6875 -1.625 C 6.75 -1.90625 7.140625 -3.414062 7.859375 -6.15625 L 8.828125 -6.15625 L 7.125 0 Z M 6.015625 0 "/></g></g></g><g fill="#737373" fill-opacity="1"><g transform="translate(230.661587, 290.432734)"><g><path d="M 6.296875 -3.078125 C 6.296875 -2.078125 6.039062 -1.296875 5.53125 -0.734375 C 5.03125 -0.171875 4.335938 0.109375 3.453125 0.109375 C 2.898438 0.109375 2.410156 -0.015625 1.984375 -0.265625 C 1.554688 -0.523438 1.222656 -0.894531 0.984375 -1.375 C 0.753906 -1.863281 0.640625 -2.429688 0.640625 -3.078125 C 0.640625 -4.085938 0.890625 -4.867188 1.390625 -5.421875 C 1.898438 -5.984375 2.597656 -6.265625 3.484375 -6.265625 C 4.347656 -6.265625 5.03125 -5.976562 5.53125 -5.40625 C 6.039062 -4.832031 6.296875 -4.054688 6.296875 -3.078125 Z M 1.609375 -3.078125 C 1.609375 -2.296875 1.765625 -1.695312 2.078125 -1.28125 C 2.398438 -0.875 2.863281 -0.671875 3.46875 -0.671875 C 4.082031 -0.671875 4.546875 -0.875 4.859375 -1.28125 C 5.171875 -1.6875 5.328125 -2.285156 5.328125 -3.078125 C 5.328125 -3.859375 5.171875 -4.453125 4.859375 -4.859375 C 4.546875 -5.265625 4.078125 -5.46875 3.453125 -5.46875 C 2.847656 -5.46875 2.390625 -5.265625 2.078125 -4.859375 C 1.765625 -4.460938 1.609375 -3.867188 1.609375 -3.078125 Z M 1.609375 -3.078125 "/></g></g></g><g fill="#737373" fill-opacity="1"><g transform="translate(237.605277, 290.432734)"><g><path d="M 3.796875 -6.265625 C 4.066406 -6.265625 4.3125 -6.242188 4.53125 -6.203125 L 4.40625 -5.328125 C 4.144531 -5.390625 3.921875 -5.421875 3.734375 -5.421875 C 3.234375 -5.421875 2.804688 -5.21875 2.453125 -4.8125 C 2.097656 -4.40625 1.921875 -3.898438 1.921875 -3.296875 L 1.921875 0 L 0.984375 0 L 0.984375 -6.15625 L 1.75 -6.15625 L 1.859375 -5.015625 L 1.90625 -5.015625 C 2.132812 -5.410156 2.410156 -5.71875 2.734375 -5.9375 C 3.054688 -6.15625 3.410156 -6.265625 3.796875 -6.265625 Z M 3.796875 -6.265625 "/></g></g></g><g fill="#737373" fill-opacity="1"><g transform="translate(242.298019, 290.432734)"><g><path d="M 1.90625 -3.15625 C 2.070312 -3.382812 2.316406 -3.679688 2.640625 -4.046875 L 4.625 -6.15625 L 5.734375 -6.15625 L 3.25 -3.53125 L 5.90625 0 L 4.78125 0 L 2.609375 -2.90625 L 1.90625 -2.296875 L 1.90625 0 L 0.984375 0 L 0.984375 -8.734375 L 1.90625 -8.734375 L 1.90625 -4.109375 C 1.90625 -3.898438 1.890625 -3.582031 1.859375 -3.15625 Z M 1.90625 -3.15625 "/></g></g></g></svg>